<svg xmlns="http://www.w3.org/2000/svg" enable-background="new 0 0 24 24" viewBox="0 0 24 24" id="function">
  <g id="_icons">
    <path d="M19.2749 15.6807c-.3906-.3906-1.0234-.3906-1.4141 0l-.3535.3535-.3682-.3682c-.3906-.3906-1.0234-.3906-1.4141 0s-.3906 1.0234 0 1.4141l.3682.3682-.4126.4126c-.3906.3906-.3906 1.0234 0 1.4141.1953.1953.4512.293.707.293s.5117-.0977.707-.293l.4126-.4126.4126.4126c.1953.1953.4512.293.707.293s.5117-.0977.707-.293c.3906-.3906.3906-1.0234 0-1.4141l-.4126-.4126.3535-.3535C19.6655 16.7041 19.6655 16.0713 19.2749 15.6807zM5.1138 19H4c-.5522 0-1 .4478-1 1s.4478 1 1 1h1.1138c1.9683 0 3.7002-1.3271 4.2119-3.2271L10.8809 12H13c.5522 0 1-.4478 1-1s-.4478-1-1-1h-1.5804l.8763-3.2529C12.5728 5.7183 13.5103 5 14.5762 5H16c.5522 0 1-.4478 1-1s-.4478-1-1-1h-1.4238c-1.9683 0-3.7002 1.3271-4.2119 3.2271L9.3479 10H7c-.5522 0-1 .4478-1 1s.4478 1 1 1h1.8091l-1.415 5.2529C7.1172 18.2817 6.1797 19 5.1138 19zM14.6509 13.2407c-.4185-.3584-1.0498-.3101-1.4102.1084-2.0947 2.4438-2.0947 5.8579 0 8.3018C13.4385 21.8813 13.7188 22 14.0005 22c.2305 0 .4619-.0791.6504-.2407.4194-.3594.4678-.9907.1084-1.4102-1.4609-1.7041-1.4609-3.9941 0-5.6982C15.1187 14.2314 15.0703 13.6001 14.6509 13.2407zM20.3491 13.2407c-.4194.3594-.4678.9907-.1084 1.4102 1.4609 1.7041 1.4609 3.9941 0 5.6982-.3594.4194-.311 1.0508.1084 1.4102C20.5376 21.9209 20.769 22 20.9995 22c.2817 0 .562-.1187.7598-.3491 2.0947-2.4438 2.0947-5.8579 0-8.3018C21.3994 12.9297 20.7671 12.8813 20.3491 13.2407z"></path>
  </g>
</svg>
